<?xml version="1.0" encoding="UTF-8" standalone="no" ?>
<!DOCTYPE svg PUBLIC "-//W3C//DTD SVG 1.1//EN" "http://www.w3.org/Graphics/SVG/1.1/DTD/svg11.dtd">
<svg xmlns="http://www.w3.org/2000/svg" xmlns:xlink="http://www.w3.org/1999/xlink" version="1.1" width="180" height="180" viewBox="0 0 180 180" xml:space="preserve">
<desc>Created with Fabric.js 5.2.4</desc>
<defs>
</defs>
<rect x="0" y="0" width="100%" height="100%" fill="transparent"></rect>
<g transform="matrix(1 0 0 1 90 90)" id="75e0903e-7b88-4d68-943c-593f3d283e3e"  >
<rect style="stroke: none; stroke-width: 1; stroke-dasharray: none; stroke-linecap: butt; stroke-dashoffset: 0; stroke-linejoin: miter; stroke-miterlimit: 4; fill: rgb(255,255,255); fill-rule: nonzero; opacity: 1; visibility: hidden;" vector-effect="non-scaling-stroke"  x="-90" y="-90" rx="0" ry="0" width="180" height="180" />
</g>
<g transform="matrix(0 0 0 0 0 0)" id="66bcc866-447e-4ad8-a940-0611e8c2f50c"  >
</g>
<g transform="matrix(0.06 0 0 0.06 90 90)"  >
<g style="" vector-effect="non-scaling-stroke"   >
		<g transform="matrix(3.13 0 0 3.13 2 2)"  >
<circle style="stroke: none; stroke-width: 1; stroke-dasharray: none; stroke-linecap: butt; stroke-dashoffset: 0; stroke-linejoin: miter; stroke-miterlimit: 4; fill: rgb(255,69,0); fill-rule: nonzero; opacity: 1;" vector-effect="non-scaling-stroke"  cx="0" cy="0" r="400" />
</g>
		<g transform="matrix(3.13 0 0 3.13 2.56 -9.89)"  >
<path style="stroke: none; stroke-width: 1; stroke-dasharray: none; stroke-linecap: butt; stroke-dashoffset: 0; stroke-linejoin: miter; stroke-miterlimit: 4; fill: rgb(255,255,255); fill-rule: nonzero; opacity: 1;" vector-effect="non-scaling-stroke"  transform=" translate(-400.39, -396.46)" d="M 666.8 400 C 666.88 405.48 666.1999999999999 410.95 664.76 416.24 C 663.32 421.53000000000003 661.14 426.6 658.28 431.28000000000003 C 655.43 435.96000000000004 651.93 440.22 647.89 443.93 C 643.85 447.64 639.31 450.76 634.4 453.2 C 634.51 454.65999999999997 634.6 456.13 634.65 457.59999999999997 C 634.7703723405797 460.532098432733 634.7703723405797 463.4679015672669 634.65 466.3999999999999 C 634.6 467.87 634.51 469.34 634.4 470.79999999999995 C 634.4 560.4 530 633.1999999999999 401.2 633.1999999999999 C 272.4 633.1999999999999 168 560.4 168 470.8 C 167.89 469.34000000000003 167.8 467.87 167.75 466.40000000000003 C 167.62962765942027 463.467901567267 167.62962765942027 460.5320984327331 167.75 457.6 C 167.8 456.13 167.89 454.66 168 453.20000000000005 C 152.43129149044648 446.04367682699274 140.7877852791993 432.4151081753352 136.15 415.9200000000001 C 131.5198537232487 399.41733007372085 134.37171901111455 381.71382786366127 143.95000000000002 367.50000000000006 C 153.52001106270532 353.28829544218416 168.8522050729187 344.00048891083617 185.88000000000002 342.1000000000001 C 202.90973449101065 340.1912274030386 219.91844662212895 345.85836063675174 232.40000000000003 357.6000000000001 C 243.84832876368415 349.84032455196825 255.84296062122615 342.9189306882264 268.2900000000001 336.8900000000001 C 280.74 330.8700000000001 293.61 325.7500000000001 306.8 321.5900000000001 C 319.99 317.43000000000006 333.47 314.24000000000007 347.12 312.0300000000001 C 360.77 309.8200000000001 374.57 308.61000000000007 388.4 308.4000000000001 L 418 169.6 C 418.33 167.98999999999998 418.98 166.47 419.91 165.10999999999999 C 420.83000000000004 163.76 422.02000000000004 162.6 423.39000000000004 161.70999999999998 C 424.77000000000004 160.82 426.31000000000006 160.20999999999998 427.93000000000006 159.90999999999997 C 429.5400000000001 159.61999999999998 431.20000000000005 159.64999999999998 432.80000000000007 159.99999999999997 L 530.8000000000001 179.59999999999997 C 540.69 162.60999999999996 561.45 155.32999999999996 579.7800000000001 162.40999999999997 C 598.1100000000001 169.48999999999998 608.59 188.83999999999997 604.4900000000001 208.05999999999997 C 600.4000000000001 227.27999999999997 582.9400000000002 240.67999999999998 563.3200000000002 239.66999999999996 C 543.6900000000002 238.65999999999997 527.7000000000002 223.53999999999996 525.6000000000001 203.99999999999994 L 440 186 L 414 310.8 C 427.66 311.09000000000003 441.29 312.37 454.77 314.62 C 481.76449664966367 319.1197097630544 507.96805958738383 327.4927248611486 532.5699999999997 339.47999999999996 C 544.8576383942358 345.4599429767963 556.6983114732308 352.3177079099314 567.9999999999998 359.9999999999999 C 576.1261329225795 352.19805791673525 586.3371385542957 346.9154254113473 597.4 344.79 C 608.462929273449 342.65704730055563 619.906765662823 343.7719096620091 630.3499999999999 348 C 640.7944084043298 352.22602017371554 649.7929231675427 359.38385071288246 656.26 368.61 C 662.7290097368183 377.8369115319348 666.3895855533274 388.7387592435308 666.8 400 z M 269.84 455.31 C 271.85999999999996 460.16 274.79999999999995 464.57 278.52 468.28000000000003 C 282.22999999999996 472.00000000000006 286.64 474.94000000000005 291.49 476.96000000000004 C 296.34455877501927 478.967650412166 301.546677173539 480.0005988074305 306.8 480 C 322.98 480 337.56 470.25 343.76 455.31 C 349.95 440.36 346.52 423.16 335.08 411.72 C 323.64 400.28000000000003 306.44 396.85 291.49 403.04 C 276.55 409.24 266.8 423.82000000000005 266.8 440 C 266.8 445.25 267.83 450.45 269.84000000000003 455.31 z M 498.93999999999994 551.33 C 500.98999999999995 549.33 502.15999999999997 546.6 502.19999999999993 543.74 C 502.23999999999995 540.87 501.12999999999994 538.11 499.12999999999994 536.0600000000001 C 497.12999999999994 534.0100000000001 494.3999999999999 532.84 491.53999999999996 532.8000000000001 C 488.66999999999996 532.7600000000001 485.90999999999997 533.8700000000001 483.59999999999997 535.6 C 477.58523397937626 539.9142164953722 471.21579232306266 543.7111263062524 464.55999999999995 546.95 C 457.90380763594834 550.1905706586973 450.9859067546085 552.863395999215 443.87999999999994 554.94 C 436.7799999999999 557.0100000000001 429.50999999999993 558.48 422.15999999999997 559.33 C 414.79999999999995 560.1800000000001 407.39 560.4000000000001 399.99999999999994 560 C 392.61999999999995 560.33 385.21999999999997 560.03 377.88999999999993 559.11 C 370.55825787810437 558.1991319027878 363.3183106697892 556.6601412762512 356.24999999999994 554.51 C 349.16999999999996 552.37 342.29999999999995 549.63 335.68999999999994 546.33 C 329.0799999999999 543.0300000000001 322.75999999999993 539.1700000000001 316.79999999999995 534.8000000000001 C 314.72999999999996 533.1 312.09999999999997 532.23 309.41999999999996 532.36 C 306.73999999999995 532.49 304.21 533.62 302.30999999999995 535.51 C 300.41999999999996 537.41 299.28999999999996 539.9399999999999 299.15999999999997 542.62 C 299.03 545.3000000000001 299.9 547.93 301.59999999999997 550 C 308.62999999999994 555.3 316.09999999999997 559.98 323.92999999999995 564 C 331.75999999999993 568.02 339.92999999999995 571.35 348.3299999999999 573.97 C 356.7299999999999 576.59 365.3399999999999 578.48 374.06999999999994 579.63 C 382.79999999999995 580.77 391.60999999999996 581.16 400.3999999999999 580.8 C 409.18999999999994 581.16 417.99999999999994 580.77 426.7299999999999 579.63 C 444.21516407560034 577.330145526385 461.1752052072367 572.0432400040979 476.87 564 C 484.7 559.98 492.17 555.3 499.2 550 z M 491.59999999999997 483.20000000000005 C 497.02 483.26000000000005 502.4 482.21000000000004 507.40999999999997 480.13000000000005 C 512.42 478.0400000000001 516.9499999999999 474.96000000000004 520.73 471.07000000000005 C 524.5100000000001 467.18000000000006 527.45 462.56000000000006 529.39 457.49000000000007 C 531.3313754587076 452.4258946536087 532.2194752474297 447.01903425407033 532 441.6 C 532 425.42 522.25 410.84000000000003 507.31 404.64000000000004 C 492.36 398.45000000000005 475.16 401.88000000000005 463.72 413.32000000000005 C 452.28000000000003 424.76000000000005 448.85 441.96000000000004 455.04 456.9100000000001 C 461.24 471.8500000000001 475.82000000000005 481.6000000000001 492 481.6000000000001 z" stroke-linecap="round" />
</g>
</g>
</g>
<g transform="matrix(3.96 0 0 3.96 54.5 44.1)"  >
<path style="stroke: rgb(0,0,0); stroke-width: 0; stroke-dasharray: none; stroke-linecap: butt; stroke-dashoffset: 0; stroke-linejoin: miter; stroke-miterlimit: 4; fill: rgb(9,220,44); fill-rule: nonzero; opacity: 1;" vector-effect="non-scaling-stroke"  transform=" translate(-12, -12)" d="M 10.6 13.8 L 8.45 11.65 Q 8.174999999999999 11.375 7.749999999999999 11.375 Q 7.324999999999999 11.375 7.049999999999999 11.65 Q 6.774999999999999 11.925 6.774999999999999 12.35 Q 6.774999999999999 12.774999999999999 7.049999999999999 13.049999999999999 L 9.9 15.9 Q 10.200000000000001 16.2 10.6 16.2 Q 10.999999999999998 16.2 11.299999999999999 15.899999999999999 L 16.95 10.249999999999998 Q 17.224999999999998 9.974999999999998 17.224999999999998 9.549999999999999 Q 17.224999999999998 9.125 16.95 8.85 Q 16.675 8.575 16.25 8.575 Q 15.825 8.575 15.55 8.85 z M 12 22 Q 9.925 22 8.1 21.212 Q 6.274999999999999 20.424 4.925 19.075 Q 3.5749999999999997 17.724999999999998 2.788 15.899999999999999 Q 2.001 14.075 2 12 Q 2 9.925 2.7880000000000003 8.1 Q 3.5760000000000005 6.274999999999999 4.925000000000001 4.925 Q 6.275 3.5749999999999997 8.100000000000001 2.788 Q 9.925000000000002 2.001 12 2 Q 14.075 2 15.9 2.7880000000000003 Q 17.725 3.5760000000000005 19.075 4.925000000000001 Q 20.425 6.275 21.213 8.100000000000001 Q 22.001 9.925000000000002 22 12 Q 22 14.075 21.212 15.9 Q 20.424 17.725 19.075 19.075 Q 17.724999999999998 20.425 15.899999999999999 21.213 Q 14.075 22.001 12 22" stroke-linecap="round" />
</g>
</svg>